PathFileType	4	(X/Y/Z)	D:\TRACE\spot_10-12-23\spot_body_motion_1_5-platform.trc
DataRate	CameraRate	NumFrames	NumMarkers	Units	OrigDataRate	OrigDataStartFrame	OrigNumFrames
100.00	100.00	      25	5	mm	100.00	1	      7000
Frame#	Time	Left_Front			Right_Front			Left_Aft			Right_Aft			Post			
		X1	Y1	Z1	X2	Y2	Z2	X3	Y3	Z3	X4	Y4	Z4	X5	Y5	Z5	

1	0.000	-780.37103	6.35132	-641.60187	791.84058	11.03856	-635.00250	-697.54565	5.55360	496.40906	719.57788	9.96072	582.53711	2.17451	743.93616	-959.27264	
2	0.010	-780.46362	6.35564	-641.53424	791.97406	11.06192	-634.91248	-697.54779	5.51333	496.35916	719.65533	10.00812	582.53168	2.09610	743.90503	-959.29999	
3	0.020	-780.41693	6.34933	-641.54669	791.90790	11.09854	-634.96759	-697.56488	5.56465	496.39966	719.66309	10.02117	582.51672	2.17256	743.92908	-959.32300	
4	0.030	-780.50403	6.39597	-641.51782	791.93365	11.14828	-634.95728	-697.56482	5.54881	496.41824	719.64703	10.02158	582.54279	2.12372	743.91907	-959.32178	
5	0.040	-780.40106	6.32710	-641.56799	792.02222	11.11462	-634.81512	-697.54462	5.50818	496.42685	719.61523	9.98829	582.53516	2.14677	743.93512	-959.48138	
6	0.050	-780.43329	6.31225	-641.55225	791.97253	11.10554	-634.87787	-697.56641	5.50818	496.40698	719.63336	9.98552	582.55029	2.15339	743.94867	-959.58777	
7	0.060	-780.42346	6.34951	-641.57172	791.96832	11.09797	-634.85724	-697.60364	5.53812	496.40784	719.63489	9.96978	582.56659	2.14817	743.94525	-959.69543	
8	0.070	-780.43109	6.37623	-641.55060	792.06360	11.14996	-634.85846	-697.52673	5.50675	496.41547	719.63977	9.95523	582.55603	2.12135	743.97711	-959.64154	
9	0.080	-780.38989	6.32737	-641.56439	791.97046	11.19043	-634.94263	-697.53601	5.52964	496.40298	719.64154	9.98685	582.52625	2.15331	743.98834	-959.72375	
10	0.090	-780.40326	6.34919	-641.56396	792.10052	11.13785	-634.79645	-697.54980	5.53994	496.39539	719.66443	10.01042	582.53607	2.14672	743.92334	-959.67517	
11	0.100	-780.44556	6.31767	-641.53094	791.88208	11.11914	-634.96326	-697.54639	5.52892	496.39777	719.62769	10.00055	582.53992	2.19130	743.94489	-959.57318	
12	0.110	-780.44348	6.30702	-641.51007	791.96997	11.08179	-634.90515	-697.57349	5.50431	496.39896	719.61487	10.00051	582.52759	2.12684	743.92078	-959.50018	
13	0.120	-780.51227	6.37108	-641.50623	792.00726	11.08571	-634.88043	-697.55914	5.52988	496.37543	719.64990	10.00816	582.52643	2.16278	743.90405	-959.46436	
14	0.130	-780.45752	6.34783	-641.54657	792.02295	11.12218	-634.84320	-697.58478	5.53903	496.39890	719.63953	10.02161	582.52734	2.14613	743.92065	-959.37006	
15	0.140	-780.39276	6.35286	-641.55963	791.90320	11.18571	-634.93805	-697.56567	5.55817	496.39261	719.67560	10.01920	582.54633	2.15180	743.99847	-959.31500	
16	0.150	-780.35822	6.30488	-641.56421	791.99615	11.17622	-634.84668	-697.56848	5.53444	496.41302	719.64197	9.99165	582.55322	2.23444	743.99683	-959.33142	
17	0.160	-780.38885	6.34586	-641.53925	791.84027	11.14088	-634.96857	-697.57971	5.51388	496.41528	719.58484	9.96011	582.54962	2.15111	743.97601	-959.34448	
18	0.170	-780.32751	6.33893	-641.64569	791.95331	11.14074	-634.86731	-697.56689	5.53264	496.42599	719.60968	9.96587	582.55212	2.09183	743.97607	-959.38403	
19	0.180	-780.47791	6.38849	-641.54742	792.00385	11.17359	-634.85339	-697.59369	5.54609	496.39410	719.61786	9.97919	582.54480	2.12256	743.96741	-959.38416	
20	0.190	-780.41528	6.35115	-641.56042	791.87842	11.18727	-634.94781	-697.55377	5.51307	496.40790	719.61334	10.01312	582.52588	2.23211	743.98749	-959.39362	
21	0.200	-780.45905	6.35483	-641.51184	791.97095	11.14393	-634.89581	-697.57306	5.55199	496.41736	719.62903	10.02109	582.55237	2.12286	743.97882	-959.42102	
22	0.210	-780.42920	6.32917	-641.50494	792.04279	11.14332	-634.81256	-697.54297	5.57875	496.36969	719.60822	10.01080	582.55627	2.15479	743.93805	-959.51556	
23	0.220	-780.45300	6.31266	-641.51898	791.96161	11.09676	-634.88397	-697.55902	5.53545	496.38422	719.60388	9.98372	582.55817	2.13196	743.93378	-959.55493	
24	0.230	-780.26770	6.21932	-641.64374	791.87085	11.08568	-634.98645	-697.55988	5.54453	496.40710	719.59570	9.96339	582.52893	2.14684	743.90479	-959.56897	
25	0.240	-780.26984	6.28394	-641.63983	791.89923	11.18761	-634.96582	-697.52484	5.52712	496.41312	719.63300	9.97324	582.52502	2.15353	743.95428	-959.58289	
